<svg xmlns="http://www.w3.org/2000/svg" viewBox="0 0 23.16 21.63"><defs><style>.cls-1{fill:#004082;}.cls-2{fill:#f5b215;}</style></defs><title>资源 35</title><g id="图层_2" data-name="图层 2"><g id="图层_1-2" data-name="图层 1"><path class="cls-1" d="M16.54,11.32V9.24A2.89,2.89,0,0,0,14,6.34H2.86A2.86,2.86,0,0,0,0,9.19v6.19a2.86,2.86,0,0,0,2.85,2.85H5.16a.65.65,0,0,1,.36.1L7.1,19.41l.14.09,3.1,2.08s.06.06.11,0,0-.09,0-.13c-.21-1-.41-1.94-.61-2.91a.28.28,0,0,1,.25-.35h3.61a1.88,1.88,0,0,0,.34,0,2.88,2.88,0,0,0,2.52-2.92v-4Z"/><path class="cls-2" d="M6.62,5V2.91A2.9,2.9,0,0,1,9.19,0H20.31a2.86,2.86,0,0,1,2.85,2.86V9.05a2.86,2.86,0,0,1-2.85,2.85H18a.66.66,0,0,0-.36.11l-1.57,1.07-.15.09-3.1,2.09s-.05.06-.11,0l0-.14.6-2.9a.27.27,0,0,0-.24-.35H9.48a1.94,1.94,0,0,1-.34,0A2.89,2.89,0,0,1,6.62,9V5Z"/></g></g></svg>