<svg xmlns="http://www.w3.org/2000/svg" viewBox="0 0 87.86 82.09"><defs><style>.cls-1{fill:#004082;stroke:#f5b215;}.cls-1,.cls-2{stroke-miterlimit:10;}.cls-2{fill:#f5b215;stroke:#004082;}</style></defs><title>资源 32</title><g id="图层_2" data-name="图层 2"><g id="图层_1-2" data-name="图层 1"><path class="cls-1" d="M62.54,43q0-3.9,0-7.79a10.82,10.82,0,0,0-9.63-10.87,8.84,8.84,0,0,0-1.15,0q-20.27,0-40.53,0A10.72,10.72,0,0,0,.5,35v23.2A10.71,10.71,0,0,0,11.19,68.85c2.88,0,5.77,0,8.66,0a2.14,2.14,0,0,1,1.34.4c2,1.35,3.95,2.68,5.92,4l.54.33,11.62,7.82c.12.07.21.22.42.15l-.09-.51q-1.14-5.43-2.27-10.87a1,1,0,0,1,.92-1.31,3.62,3.62,0,0,1,.57,0h13a8.79,8.79,0,0,0,1.26-.06,10.81,10.81,0,0,0,9.45-11c0-3,0-6.07,0-9.11C62.52,46.79,62.53,44.87,62.54,43Z"/><path class="cls-2" d="M25.32,19.2c0-2.59,0-5.19,0-7.79A10.82,10.82,0,0,1,35,.54a11,11,0,0,1,1.15,0H76.65a10.72,10.72,0,0,1,10.7,10.72q0,11.61,0,23.21A10.7,10.7,0,0,1,76.67,45.11H68a2.32,2.32,0,0,0-1.35.4q-3,2-5.92,4c-.18.11-.36.22-.53.34L48.58,57.67c-.11.08-.2.23-.41.16,0-.17,0-.34.09-.51q1.13-5.44,2.27-10.88a1,1,0,0,0-.92-1.31,3.75,3.75,0,0,0-.58,0h-13a7.72,7.72,0,0,1-1.27-.06,10.8,10.8,0,0,1-9.44-11V25C25.34,23.05,25.32,21.13,25.32,19.2Z"/></g></g></svg>