<svg xmlns="http://www.w3.org/2000/svg" viewBox="0 0 63.04 58.35"><defs><style>.cls-1{fill:#f5b215;stroke:#004082;stroke-miterlimit:10;}</style></defs><title>资源 33</title><g id="图层_2" data-name="图层 2"><g id="图层_1-2" data-name="图层 1"><path class="cls-1" d="M.5,19.2q0-3.88,0-7.79A10.84,10.84,0,0,1,10.15.54,11,11,0,0,1,11.3.5H51.83A10.72,10.72,0,0,1,62.54,11.22V34.43A10.71,10.71,0,0,1,51.85,45.11H43.19a2.32,2.32,0,0,0-1.35.4c-2,1.35-3.94,2.69-5.91,4l-.54.34L23.76,57.67c-.11.08-.2.23-.41.16l.09-.51q1.14-5.44,2.27-10.88a1,1,0,0,0-.92-1.31,3.62,3.62,0,0,0-.57,0h-13A7.55,7.55,0,0,1,10,45.05a10.8,10.8,0,0,1-9.45-11c0-3,0-6.08,0-9.12C.52,23.05.51,21.13.5,19.2Z"/></g></g></svg>