<svg xmlns="http://www.w3.org/2000/svg" viewBox="0 0 86.86 81.09"><defs><style>.cls-1{fill:#004082;}.cls-2{fill:#f5b215;}</style></defs><title>资源 31</title><g id="图层_2" data-name="图层 2"><g id="图层_1-2" data-name="图层 1"><path class="cls-1" d="M62,42.45q0-3.9,0-7.79a10.82,10.82,0,0,0-9.63-10.87,8.84,8.84,0,0,0-1.15,0q-20.27,0-40.53,0A10.72,10.72,0,0,0,0,34.47v23.2A10.71,10.71,0,0,0,10.69,68.35c2.88,0,5.77,0,8.66,0a2.14,2.14,0,0,1,1.34.4c2,1.35,3.95,2.68,5.92,4l.54.33,11.62,7.82c.12.07.21.22.42.15l-.09-.51Q38,75.13,36.83,69.69a1,1,0,0,1,.92-1.31,3.62,3.62,0,0,1,.57,0h13a8.79,8.79,0,0,0,1.26-.06,10.81,10.81,0,0,0,9.45-11c0-3,0-6.07,0-9.11C62,46.29,62,44.37,62,42.45Z"/><path class="cls-2" d="M24.82,18.7c0-2.59,0-5.19,0-7.79A10.82,10.82,0,0,1,34.47,0a11,11,0,0,1,1.15,0H76.15a10.72,10.72,0,0,1,10.7,10.72q0,11.61,0,23.21A10.7,10.7,0,0,1,76.17,44.61H67.51a2.32,2.32,0,0,0-1.35.4q-3,2-5.92,4c-.18.11-.36.22-.53.34L48.08,57.17c-.11.08-.2.23-.41.16,0-.17,0-.34.09-.51Q48.89,51.38,50,45.94a1,1,0,0,0-.92-1.31,3.75,3.75,0,0,0-.58,0h-13a7.72,7.72,0,0,1-1.27-.06,10.8,10.8,0,0,1-9.44-11V24.47C24.84,22.55,24.82,20.63,24.82,18.7Z"/></g></g></svg>