<svg xmlns="http://www.w3.org/2000/svg" viewBox="0 0 157.64 118.35"><defs><style>.cls-1{fill:#004083;}.cls-2{fill:#f5b315;}</style></defs><title>资源 1</title><g id="图层_2" data-name="图层 2"><g id="图层_1-2" data-name="图层 1"><path class="cls-1" d="M115,46.73q0-7.21,0-14.44A20,20,0,0,0,97.09,12.15,19,19,0,0,0,95,12.07H19.85A19.87,19.87,0,0,0,0,31.94V75A19.85,19.85,0,0,0,19.81,94.74c5.35,0,10.7,0,16.05,0a4.18,4.18,0,0,1,2.49.75c3.65,2.5,7.31,5,11,7.45.33.2.67.4,1,.62L71.86,118c.21.14.38.42.77.29-.06-.32-.11-.63-.17-.94q-2.1-10.08-4.2-20.16A1.86,1.86,0,0,1,70,94.79a7.51,7.51,0,0,1,1.06,0H95.09a15.22,15.22,0,0,0,2.34-.11,20,20,0,0,0,17.5-20.32q0-8.44,0-16.89C114.94,53.86,115,50.3,115,46.73Z"/><path class="cls-2" d="M42.67,34.66q0-7.21,0-14.44A20.05,20.05,0,0,1,60.55.08,17,17,0,0,1,62.69,0H137.8a19.87,19.87,0,0,1,19.84,19.87v43a19.85,19.85,0,0,1-19.81,19.79c-5.35,0-10.69,0-16,0a4.18,4.18,0,0,0-2.5.75c-3.64,2.5-7.31,5-11,7.45-.33.2-.67.4-1,.62Q96.56,98.71,85.78,106c-.21.14-.38.42-.76.29,0-.32.1-.64.17-.94l4.2-20.17a1.88,1.88,0,0,0-1.7-2.43,9.49,9.49,0,0,0-1.07,0H62.56a15.29,15.29,0,0,1-2.35-.11,20,20,0,0,1-17.5-20.32V45.36C42.7,41.79,42.68,38.23,42.67,34.66Z"/></g></g></svg>